<?xml version="1.0" encoding="UTF-8" standalone="no"?>
<!-- Created with Sodipodi ("http://www.sodipodi.com/") -->

<svg
   xmlns:dc="http://purl.org/dc/elements/1.1/"
   xmlns:cc="http://creativecommons.org/ns#"
   xmlns:rdf="http://www.w3.org/1999/02/22-rdf-syntax-ns#"
   xmlns:svg="http://www.w3.org/2000/svg"
   xmlns="http://www.w3.org/2000/svg"
   xmlns:xlink="http://www.w3.org/1999/xlink"
   xmlns:sodipodi="http://sodipodi.sourceforge.net/DTD/sodipodi-0.dtd"
   xmlns:inkscape="http://www.inkscape.org/namespaces/inkscape"
   id="svg153"
   xml:space="preserve"
   height="48pt"
   width="48pt"
   enable-background="new 0 0 256 256"
   overflow="visible"
   viewBox="0 0 256 256"
   version="1.1"
   inkscape:version="0.48.2 r9819"
   sodipodi:docname="Camera icon.svg"><metadata
   id="metadata4693"><rdf:RDF><cc:Work
       rdf:about=""><dc:format>image/svg+xml</dc:format><dc:type
         rdf:resource="http://purl.org/dc/dcmitype/StillImage" /></cc:Work></rdf:RDF></metadata><defs
   id="defs4691">
    
    <linearGradient
   x1="58.976"
   y1="45.966"
   x2="58.976"
   gradientUnits="userSpaceOnUse"
   y2="50.317"
   id="XMLID_1_">
      <stop
   offset="0"
   stop-color="#ccc"
   id="stop161" />
      <stop
   offset="1"
   stop-color="#666"
   id="stop162" />
    </linearGradient>
    
    
    
    
    <linearGradient
   x1="7.3384"
   y1="132.09"
   x2="238.38"
   gradientUnits="userSpaceOnUse"
   y2="132.09"
   id="XMLID_2_">
      <stop
   offset="0"
   stop-color="#D9D9D9"
   id="stop171" />
      <stop
   offset="1"
   stop-color="#BFBFBF"
   id="stop172" />
    </linearGradient>
    
    
    
    
    
    <linearGradient
   x1="79.686"
   y1="135.65"
   x2="221.39"
   gradientUnits="userSpaceOnUse"
   y2="135.65"
   id="XMLID_3_">
      <stop
   offset="0.0056"
   stop-color="#D0D2D8"
   id="stop182"
   style="stop-color:#ffffff;stop-opacity:0.80000001;" />
      <stop
   offset="0.5"
   stop-color="#EDEFF6"
   id="stop183"
   style="stop-color:#f7f5ff;stop-opacity:1;" />
      <stop
   offset="1"
   stop-color="#D0D2D8"
   id="stop184"
   style="stop-color:#ffffff;stop-opacity:1;" />
    </linearGradient>
    
    
    
    
    <linearGradient
   x1="117.26"
   y1="135.65"
   x2="183.82"
   gradientUnits="userSpaceOnUse"
   y2="135.65"
   id="XMLID_4_">
      <stop
   offset="0"
   stop-color="#D9D9D9"
   id="stop195" />
      <stop
   offset="1"
   stop-color="#BFBFBF"
   id="stop196" />
    </linearGradient>
    
    
    
    <linearGradient
   x1="150.54"
   y1="106.88"
   x2="150.54"
   gradientUnits="userSpaceOnUse"
   y2="161.8"
   id="XMLID_5_">
      <stop
   offset=".0056"
   stop-color="#D0D2D8"
   id="stop204" />
      <stop
   offset=".5"
   stop-color="#EDEFF6"
   id="stop205" />
      <stop
   offset="1"
   stop-color="#D0D2D8"
   id="stop206" />
    </linearGradient>
    
    
    
    
    
    
    
    
    
    
    <linearGradient
   x1="202.07"
   y1="64.874"
   x2="202.07"
   gradientUnits="userSpaceOnUse"
   y2="72.891"
   id="XMLID_6_">
      <stop
   offset="0"
   stop-color="#fff"
   id="stop223" />
      <stop
   offset="1"
   stop-color="#D2DDE9"
   id="stop224"
   style="stop-color:#d2ddff;stop-opacity:0.176;" />
    </linearGradient>
    
    
    
    
    <linearGradient
   x1="117.07"
   y1="94.432"
   x2="118.54"
   gradientUnits="userSpaceOnUse"
   y2="73.985"
   id="XMLID_7_">
      <stop
   offset="0"
   stop-color="#9cf"
   id="stop233" />
      <stop
   offset="1"
   stop-color="#06c"
   id="stop234" />
    </linearGradient>
    
    <linearGradient
   x1="118.56"
   y1="65.876"
   x2="118.56"
   gradientUnits="userSpaceOnUse"
   y2="71.754"
   id="XMLID_8_">
      <stop
   offset="0"
   stop-color="#fff"
   id="stop240" />
      <stop
   offset="1"
   stop-color="#36c"
   id="stop241" />
    </linearGradient>
    
    <linearGradient
   x1="148.53"
   y1="66.609"
   x2="148.53"
   gradientUnits="userSpaceOnUse"
   y2="75.064"
   id="XMLID_9_">
      <stop
   offset="0"
   stop-color="#fff"
   id="stop247"
   style="stop-color:#ffffff;stop-opacity:0;" />
      <stop
   offset="1"
   id="stop248"
   style="stop-color:#ffffff;stop-opacity:1;" />
    </linearGradient>
    
  <linearGradient
   inkscape:collect="always"
   xlink:href="#XMLID_9_"
   id="linearGradient5332"
   gradientUnits="userSpaceOnUse"
   x1="148.53"
   y1="66.609"
   x2="148.53"
   y2="75.064" /><linearGradient
   inkscape:collect="always"
   xlink:href="#XMLID_6_"
   id="linearGradient5344"
   gradientUnits="userSpaceOnUse"
   x1="202.07"
   y1="64.874"
   x2="202.07"
   y2="72.891" /><linearGradient
   inkscape:collect="always"
   xlink:href="#XMLID_3_"
   id="linearGradient5367"
   gradientUnits="userSpaceOnUse"
   x1="79.686"
   y1="135.65"
   x2="221.39"
   y2="135.65" /><linearGradient
   inkscape:collect="always"
   xlink:href="#XMLID_2_"
   id="linearGradient5374"
   gradientUnits="userSpaceOnUse"
   x1="7.3384"
   y1="132.09"
   x2="238.38"
   y2="132.09" /></defs><sodipodi:namedview
   pagecolor="#ffffff"
   bordercolor="#666666"
   borderopacity="1"
   objecttolerance="10"
   gridtolerance="10"
   guidetolerance="10"
   inkscape:pageopacity="1"
   inkscape:pageshadow="2"
   inkscape:window-width="1366"
   inkscape:window-height="706"
   id="namedview4689"
   showgrid="false"
   inkscape:zoom="4"
   inkscape:cx="26.039792"
   inkscape:cy="27.166568"
   inkscape:window-x="-8"
   inkscape:window-y="-8"
   inkscape:window-maximized="1"
   inkscape:current-layer="svg153" />
  <path
   style="opacity:0.7;fill:#ffffff"
   inkscape:connector-curvature="0"
   d="m 37.065333,52.786333 c 0,5.257 9.869,9.519 22.044,9.519 12.175,0 22.044,-4.262 22.044,-9.519 0,-5.257 -9.869,-9.519 -22.044,-9.519 -12.175,0 -22.044,4.262 -22.044,9.519 z"
   id="path159" /><path
   style="opacity:0.8;fill:#ffffff"
   d="m 39.737333,51.154333 c 0,1.607 6.661,6.255 19.372,6.255 12.711,0 19.372,-4.648 19.372,-6.255 0,-1.607 -6.661,-6.255 -19.372,-6.255 -12.711,0 -19.372,4.648 -19.372,6.255 z"
   id="path166"
   inkscape:connector-curvature="0" /><g
   id="sfondo"
   stroke="#000">
    <path
   id="path155"
   stroke="none"
   d="m256 256h-256v-256h256v256z"
   fill="none" />
  </g>
  <path
   style="opacity:0.2;fill:#ffffff"
   inkscape:connector-curvature="0"
   d="m 25.357333,64.067 c -6.63,0 -12.024,5.395 -12.024,12.025 v 134.8 c 0,6.631 5.394,12.024 12.024,12.024 H 238.35733 c 6.631,0 12.023,-5.394 12.023,-12.024 v -134.8 c 0,-6.63 -5.393,-12.024 -12.023,-12.024 H 25.357333 z"
   id="path167" /><path
   style="fill:none;stroke:#ffffff;stroke-opacity:1"
   inkscape:connector-curvature="0"
   d="m 16.357,50.667 c -7.733,0 -14.024,6.292 -14.024,14.024 v 134.8 c 0,7.733 6.292,14.024 14.024,14.024 h 213 c 7.732,0 14.023,-6.291 14.023,-14.024 v -134.8 c 0,-7.733 -6.291,-14.024 -14.023,-14.024 h -213 z"
   id="path168" /><path
   style="fill:none;stroke:#ffffff;stroke-opacity:1"
   inkscape:connector-curvature="0"
   d="m 16.357,52.667 c -6.63,0 -12.024,5.395 -12.024,12.024 v 134.8 c 0,6.631 5.394,12.024 12.024,12.024 h 213 c 6.63,0 12.023,-5.394 12.023,-12.024 v -134.8 c 0,-6.63 -5.394,-12.024 -12.023,-12.024 h -213 z"
   id="path169" /><path
   inkscape:connector-curvature="0"
   style="fill:#ffffff;opacity:0.6"
   d="m 238.38,199.5 c 0,4.98 -4.037,9.018 -9.017,9.018 h -213 c -4.98,0 -9.019,-4.037 -9.019,-9.018 V 64.69 c 0,-4.981 4.038,-9.019 9.019,-9.019 h 213 c 4.979,0 9.017,4.038 9.017,9.019 V 199.5 z"
   id="path176" /><path
   style="fill:#ffffff;opacity:0.3"
   inkscape:connector-curvature="0"
   d="m 229.36,55.673 h -3.007 c 4.98,0 9.019,4.038 9.019,9.019 v 134.8 c 0,4.98 -4.038,9.018 -9.019,9.018 h 3.007 c 4.979,0 9.017,-4.037 9.017,-9.018 v -134.8 c 0,-4.979 -4.04,-9.017 -9.02,-9.017 z"
   id="path177" /><path
   style="fill:#ffffff;opacity:0.4"
   inkscape:connector-curvature="0"
   d="M 10.344,199.5 V 64.69 c 0,-4.981 4.038,-9.019 9.019,-9.019 h -3.006 c -4.98,0 -9.019,4.038 -9.019,9.019 v 134.8 c 0,4.98 4.038,9.018 9.019,9.018 h 3.006 c -4.981,0 -9.019,-4.03 -9.019,-9.01 z"
   id="path178" /><path
   style="opacity:0.5;fill:#ffffff"
   inkscape:connector-curvature="0"
   d="m 229.36,55.673 h -213 c -4.98,0 -9.019,4.038 -9.019,9.019 v 5.256 c 0,-4.799 4.038,-8.688 9.019,-8.688 h 213 c 4.979,0 9.017,3.89 9.017,8.688 v -5.256 c 0,-4.981 -4.04,-9.019 -9.02,-9.019 z"
   id="path179" /><path
   style="fill:none;stroke:#ffffff"
   inkscape:connector-curvature="0"
   d="m 78.183,135.65 c 0,39.962 32.396,72.357 72.358,72.357 39.962,0 72.357,-32.396 72.357,-72.357 0,-39.963 -32.396,-72.358 -72.357,-72.358 -39.96,-0.002 -72.357,32.394 -72.357,72.358 z"
   id="path180" /><path
   inkscape:connector-curvature="0"
   style="fill:url(#linearGradient5367);stroke:#ffffff;opacity:0.5"
   d="m 79.686,135.65 c 0,39.069 31.786,70.854 70.855,70.854 39.069,0 70.854,-31.784 70.854,-70.854 0,-39.07 -31.784,-70.855 -70.854,-70.855 -39.07,-0.002 -70.854,31.784 -70.854,70.855 z"
   id="path190" /><path
   style="fill:#ffffff;opacity:0.4"
   inkscape:connector-curvature="0"
   d="m 112.75,135.65 c 0,20.836 16.952,37.787 37.789,37.787 20.837,0 37.788,-16.951 37.788,-37.787 0,-20.837 -16.951,-37.789 -37.788,-37.789 -20.837,0 -37.79,16.949 -37.79,37.789 z"
   id="path191" /><path
   style="fill:#ffffff"
   inkscape:connector-curvature="0"
   d="m 118.28,136.16 c 0,-18.069 14.702,-32.771 32.771,-32.771 17.985,0 32.628,14.565 32.766,32.518 0,-0.085 0.006,-0.168 0.006,-0.253 0,-18.351 -14.929,-33.28 -33.278,-33.28 -18.351,0 -33.28,14.93 -33.28,33.28 0,18.35 14.929,33.278 33.28,33.278 0.085,0 0.169,-0.006 0.254,-0.007 -17.96,-0.15 -32.52,-14.79 -32.52,-32.77 z"
   id="path201" /><path
   style="fill:none;stroke:#ffffff"
   inkscape:connector-curvature="0"
   d="m 121.77,135.65 c 0,15.863 12.907,28.77 28.771,28.77 15.864,0 28.77,-12.906 28.77,-28.77 0,-15.865 -12.905,-28.771 -28.77,-28.771 -15.865,0 -28.77,12.9 -28.77,28.77 z"
   id="path202" /><path
   inkscape:connector-curvature="0"
   style="fill:#f5f8ff;opacity:0.69999999999999996;fill-opacity:1"
   d="m 123.27,135.65 c 0,15.035 12.232,27.267 27.269,27.267 15.034,0 27.267,-12.231 27.267,-27.267 0,-15.036 -12.232,-27.268 -27.267,-27.268 -15.04,0 -27.27,12.23 -27.27,27.27 z"
   id="path212" /><path
   style="fill:#ffffff"
   inkscape:connector-curvature="0"
   d="m 133.79,135.65 c 0,9.233 7.514,16.745 16.748,16.745 9.233,0 16.745,-7.512 16.745,-16.745 0,-9.234 -7.512,-16.747 -16.745,-16.747 -9.23,-0.01 -16.75,7.5 -16.75,16.74 z"
   id="path213" /><path
   inkscape:connector-curvature="0"
   d="m 133.79,135.65 c 0,9.233 7.514,16.745 16.748,16.745 9.233,0 16.745,-7.512 16.745,-16.745 0,-9.234 -7.512,-16.747 -16.745,-16.747 -9.23,-0.01 -16.75,7.5 -16.75,16.74 z"
   id="path214"
   style="fill:#ffffff" /><path
   style="opacity:0.6;fill:#ffffff"
   inkscape:connector-curvature="0"
   d="m 150.54,64.793 c -0.173,0 -0.344,0.012 -0.517,0.013 38.27,0.279 69.319,31.945 69.319,70.842 0,38.896 -31.05,70.561 -69.319,70.841 0.173,0.001 0.344,0.013 0.517,0.013 39.069,0 70.854,-31.784 70.854,-70.854 0.01,-39.071 -31.78,-70.857 -70.85,-70.857 z"
   id="path215" /><path
   style="opacity:0.8;fill:#ffffff"
   inkscape:connector-curvature="0"
   d="m 81.208,135.65 c 0,-38.941 31.241,-70.638 69.715,-70.846 -0.128,0 -0.255,-0.009 -0.383,-0.009 -39.07,0 -70.855,31.786 -70.855,70.855 0,39.069 31.786,70.854 70.855,70.854 0.128,0 0.255,-0.009 0.383,-0.01 -38.47,-0.21 -69.712,-31.9 -69.712,-70.84 z"
   id="path216" /><path
   style="fill:none;stroke:#ffffff"
   inkscape:connector-curvature="0"
   d="m 179.98,77.549 c 0,1.66 1.346,3.006 3.006,3.006 h 38.164 c 1.66,0 3.006,-1.346 3.006,-3.006 V 65.788 c 0,-1.66 -1.346,-3.006 -3.006,-3.006 h -38.164 c -1.66,0 -3.006,1.346 -3.006,3.006 v 11.761 z"
   id="path219" /><path
   style="fill:#ffffff;opacity:0.8"
   inkscape:connector-curvature="0"
   d="m 182.99,64.285 c -0.829,0 -1.503,0.674 -1.503,1.503 v 11.761 c 0,0.829 0.674,1.503 1.503,1.503 h 38.164 c 0.829,0 1.503,-0.674 1.503,-1.503 V 65.788 c 0,-0.829 -0.674,-1.503 -1.503,-1.503 h -38.16 z"
   id="path220" /><path
   style="fill:#ffffff"
   inkscape:connector-curvature="0"
   d="m 182.99,65.788 c 0,0.002 -0.001,11.761 -0.001,11.761 h 38.164 V 65.788 h -38.16 z"
   id="path221" /><path
   inkscape:connector-curvature="0"
   style="fill:url(#linearGradient5344)"
   d="m 182.99,64.285 c 0,0.001 -0.001,7.143 -0.001,10.289 13.166,-2.274 25.023,-7.518 38.164,-7.294 v -2.994 c 0,-0.001 -38.16,-0.001 -38.16,-0.001 z"
   id="path228" /><path
   inkscape:connector-curvature="0"
   d="m 105.85,73.953 c 0,7.011 5.684,12.694 12.694,12.694 7.011,0 12.695,-5.683 12.695,-12.694 0,-7.011 -5.684,-12.694 -12.695,-12.694 -7.01,0 -12.69,5.683 -12.69,12.694 z"
   id="path229"
   style="opacity:0.4;fill:#ffffff" /><path
   style="fill:#ffffff;opacity:0.5"
   inkscape:connector-curvature="0"
   d="m 144.39,66.58 c -3.255,1.72 -5.479,5.136 -5.479,9.065 0,5.652 4.6,10.251 10.255,10.251 5.658,0 10.259,-4.599 10.259,-10.251 0,-4.099 -2.425,-7.634 -5.913,-9.273 -0.985,-0.041 -1.976,-0.076 -2.973,-0.076 -2.07,0 -4.12,0.108 -6.15,0.284 z"
   id="path230" /><path
   inkscape:connector-curvature="0"
   d="m 139.88,75.457 c 0,4.808 3.911,8.719 8.719,8.719 4.809,0 8.72,-3.912 8.72,-8.719 0,-4.808 -3.911,-8.719 -8.72,-8.719 -4.81,-0.001 -8.72,3.91 -8.72,8.719 z"
   id="path231"
   style="fill:#ffffff;opacity:0.6" /><path
   inkscape:connector-curvature="0"
   style="fill:#ffffff;opacity:0.8"
   d="m 110.36,73.953 c 0,4.514 3.671,8.186 8.185,8.186 4.514,0 8.185,-3.672 8.185,-8.186 0,-4.513 -3.671,-8.185 -8.185,-8.185 -4.51,0.001 -8.18,3.672 -8.18,8.185 z"
   id="path238" /><path
   inkscape:connector-curvature="0"
   style="fill:#ffffff"
   d="m 118.54,65.876 c -2.65,0 -4.925,1.375 -6.004,3.347 0.34,2.675 2.892,4.763 6.024,4.763 3.112,0 5.65,-2.06 6.019,-4.708 -1.07,-2.003 -3.36,-3.402 -6.04,-3.402 z"
   id="path245" /><path
   inkscape:connector-curvature="0"
   style="fill:url(#linearGradient5332)"
   d="m 143,73.326 c 0.988,2.023 3.047,3.428 5.451,3.428 2.539,0 4.711,-1.557 5.624,-3.766 -0.945,-2.085 -3.036,-3.546 -5.471,-3.546 -2.56,0 -4.74,1.621 -5.6,3.884 z"
   id="path252" />
</svg>